HIERARCHY
ROOT Hips
{
	OFFSET 0.00000 0.00000 0.00000
	CHANNELS 6 Xposition Yposition Zposition Zrotation Yrotation Xrotation 
	JOINT LHipJoint
	{
		OFFSET 0 0 0
		CHANNELS 3 Zrotation Yrotation Xrotation
		JOINT LeftUpLeg
		{
			OFFSET 1.41261 -1.82971 0.84908
			CHANNELS 3 Zrotation Yrotation Xrotation
			JOINT LeftLeg
			{
				OFFSET 2.52554 -6.93888 0.00000
				CHANNELS 3 Zrotation Yrotation Xrotation
				JOINT LeftFoot
				{
					OFFSET 2.56654 -7.05152 0.00000
					CHANNELS 3 Zrotation Yrotation Xrotation
					JOINT LeftToeBase
					{
						OFFSET 0.21698 -0.59616 1.85369
						CHANNELS 3 Zrotation Yrotation Xrotation
						End Site
						{
							OFFSET 0.00000 -0.00000 0.97832
						}
					}
				}
			}
		}
	}
	JOINT RHipJoint
	{
		OFFSET 0 0 0
		CHANNELS 3 Zrotation Yrotation Xrotation
		JOINT RightUpLeg
		{
			OFFSET -1.12808 -1.82971 0.84907
			CHANNELS 3 Zrotation Yrotation Xrotation
			JOINT RightLeg
			{
				OFFSET -2.53425 -6.96280 0.00000
				CHANNELS 3 Zrotation Yrotation Xrotation
				JOINT RightFoot
				{
					OFFSET -2.58413 -7.09983 0.00000
					CHANNELS 3 Zrotation Yrotation Xrotation
					JOINT RightToeBase
					{
						OFFSET -0.26437 -0.72636 1.92241
						CHANNELS 3 Zrotation Yrotation Xrotation
						End Site
						{
							OFFSET -0.00000 -0.00000 1.02667
						}
					}
				}
			}
		}
	}
	JOINT LowerBack
	{
		OFFSET 0 0 0
		CHANNELS 3 Zrotation Yrotation Xrotation
		JOINT Spine
		{
			OFFSET -0.02096 2.02288 -0.14752
			CHANNELS 3 Zrotation Yrotation Xrotation
			JOINT Spine1
			{
				OFFSET 0.03477 2.03136 -0.02358
				CHANNELS 3 Zrotation Yrotation Xrotation
				JOINT Neck
				{
					OFFSET 0 0 0
					CHANNELS 3 Zrotation Yrotation Xrotation
					JOINT Neck1
					{
						OFFSET 0.00174 1.74359 0.19336
						CHANNELS 3 Zrotation Yrotation Xrotation
						JOINT Head
						{
							OFFSET -0.03054 1.76140 -0.17751
							CHANNELS 3 Zrotation Yrotation Xrotation
							End Site
							{
								OFFSET -0.00863 1.77239 -0.08120
							}
						}
					}
				}
				JOINT LeftShoulder
				{
					OFFSET 0 0 0
					CHANNELS 3 Zrotation Yrotation Xrotation
					JOINT LeftArm
					{
						OFFSET 3.68685 1.32687 -0.67367
						CHANNELS 3 Zrotation Yrotation Xrotation
						JOINT LeftForeArm
						{
							OFFSET 4.76468 -0.00000 -0.00000
							CHANNELS 3 Zrotation Yrotation Xrotation
							JOINT LeftHand
							{
								OFFSET 3.52712 -0.00000 -0.00000
								CHANNELS 3 Zrotation Yrotation Xrotation
								JOINT LeftFingerBase
								{
									OFFSET 0 0 0
									CHANNELS 3 Zrotation Yrotation Xrotation
									JOINT LeftHandIndex1
									{
										OFFSET 0.85956 -0.00000 -0.00000
										CHANNELS 3 Zrotation Yrotation Xrotation
										End Site
										{
											OFFSET 0.69300 -0.00000 -0.00000
										}
									}
								}
								JOINT LThumb
								{
									OFFSET 0 0 0
									CHANNELS 3 Zrotation Yrotation Xrotation
									End Site
									{
										OFFSET 0.70358 -0.00000 0.70358
									}
								}
							}
						}
					}
				}
				JOINT RightShoulder
				{
					OFFSET 0 0 0
					CHANNELS 3 Zrotation Yrotation Xrotation
					JOINT RightArm
					{
						OFFSET -3.31304 1.28268 -0.97357
						CHANNELS 3 Zrotation Yrotation Xrotation
						JOINT RightForeArm
						{
							OFFSET -4.90577 -0.00000 -0.00000
							CHANNELS 3 Zrotation Yrotation Xrotation
							JOINT RightHand
							{
								OFFSET -3.42692 -0.00000 0.00000
								CHANNELS 3 Zrotation Yrotation Xrotation
								JOINT RightFingerBase
								{
									OFFSET 0 0 0
									CHANNELS 3 Zrotation Yrotation Xrotation
									JOINT RightHandIndex1
									{
										OFFSET -0.74096 -0.00000 -0.00000
										CHANNELS 3 Zrotation Yrotation Xrotation
										End Site
										{
											OFFSET -0.59738 -0.00000 -0.00000
										}
									}
								}
								JOINT RThumb
								{
									OFFSET 0 0 0
									CHANNELS 3 Zrotation Yrotation Xrotation
									End Site
									{
										OFFSET -0.60650 -0.00000 0.60650
									}
								}
							}
						}
					}
				}
			}
		}
	}
}
MOTION
Frames: 10
Frame Time: .0083333
-0.2105 17.9002 1.7790 181.1020 -4.7787 181.2060 0.0000 0.0000 0.0000 -12.3119 -27.2713 -0.4835 1.0990 6.6614 18.7162 -1.5247 -30.5321 -12.4377 2.3225 -9.5078 -27.3970 0.0000 0.0000 0.0000 16.1629 11.0016 -6.8474 -1.1616 -6.8421 19.2483 0.4975 22.7619 -12.1576 -0.0024 -0.3160 0.8681 -1.6917 2.5438 13.6657 1.0479 2.9815 1.7729 1.5141 1.4211 -5.9299 -5.6766 -4.5117 -11.4037 8.2397 -7.0997 16.3215 2.8953 -3.2160 7.3820 -0.0000 -0.0000 0.0000 -99.1251 12.9437 0.6151 24.0765 -35.2451 -7.7507 -0.0000 0.0000 -2.7848 7.0694 -14.5656 -1.7864 -7.1250 0.0000 -0.0000 -13.8442 15.5828 9.9140 -0.0000 -0.0000 0.0000 88.4759 4.4720 20.4008 -22.9590 34.0439 -7.1153 0.0000 -0.0000 -6.0586 -5.9002 -35.5149 3.4356 7.1250 -0.0000 -0.0000 33.2930 -62.5262 -15.0515
-0.3379 17.8799 1.8104 181.3860 -1.7834 181.2250 0.0000 0.0000 0.0000 -12.2402 -26.5064 -0.3075 1.0464 6.5052 18.2574 -1.8015 -30.3475 -10.2000 1.8551 -8.5576 -24.4208 0.0000 0.0000 0.0000 16.0936 11.9270 -7.2292 -1.1824 -6.9011 19.4227 0.7393 24.2038 -11.5148 -0.0019 -0.2839 0.7801 -1.5495 2.5132 13.7893 1.0392 2.9394 1.8868 1.4315 1.3871 -5.8679 -5.9113 -4.7313 -11.3052 8.6309 -7.4916 16.4066 3.0201 -3.4008 7.4462 -0.0000 0.0000 0.0000 -99.5612 13.0408 -0.0588 23.6347 -34.7756 -7.4972 -0.0000 0.0000 -2.8014 7.7067 -14.4770 -1.9376 -7.1250 0.0000 -0.0000 -13.4214 15.6345 9.5777 -0.0000 0.0000 0.0000 88.5108 4.9189 22.3625 -23.7231 34.8701 -7.5477 0.0000 -0.0000 -6.0768 -5.3496 -35.3842 3.1037 7.1250 -0.0000 -0.0000 33.7014 -62.2784 -15.0621
-0.4688 17.8575 1.8326 181.4400 1.2576 181.3110 0.0000 0.0000 0.0000 -12.5095 -25.5628 -0.0820 1.0110 6.3976 17.9424 -1.8223 -29.3420 -8.6662 1.1541 -6.8209 -19.1860 0.0000 0.0000 0.0000 15.7663 12.9369 -7.6264 -1.2002 -6.9510 19.5703 0.9568 25.4027 -10.9571 -0.0021 0.2924 -0.8035 -1.8120 2.1631 13.8180 0.9698 2.8992 1.9578 1.4946 1.5720 -5.8110 -6.0605 -4.8661 -11.1767 8.9586 -7.7934 16.5776 3.1201 -3.5469 7.5220 0.0000 0.0000 0.0000 -99.9377 12.9576 -0.9802 22.8343 -33.9071 -7.0456 -0.0000 0.0000 -2.2217 7.9850 -14.3863 -1.9961 -7.1250 0.0000 -0.0000 -13.2384 15.7078 9.4181 0.0000 0.0000 0.0000 88.5165 5.2080 24.2991 -24.5224 35.7118 -8.0094 0.0000 -0.0000 -5.9971 -4.7753 -35.1736 2.7551 7.1250 -0.0000 -0.0000 34.0420 -61.9609 -14.9782
-0.5976 17.8365 1.8399 181.2490 4.0863 181.2900 0.0000 0.0000 0.0000 -13.1272 -23.5844 0.0543 1.0243 6.4381 18.0611 -1.0778 -27.0364 -11.7729 1.9480 -8.7570 -25.0380 0.0000 0.0000 0.0000 15.2149 13.7791 -7.8036 -1.1950 -6.9363 19.5268 1.1117 26.2342 -10.6000 -0.0360 1.2247 -3.3672 -2.3777 2.0602 13.7904 0.9030 2.6767 2.0801 1.7890 1.4727 -5.6779 -6.1681 -4.9780 -10.9164 9.2843 -8.0569 16.5515 3.2195 -3.6783 7.5066 0.0000 0.0000 0.0000 -100.2472 12.8256 -1.8008 21.8836 -32.8452 -6.5226 -0.0000 0.0000 -1.6598 7.3728 -14.3654 -1.8388 -7.1250 0.0000 -0.0000 -13.6501 15.7621 9.7120 0.0000 0.0000 0.0000 88.4132 5.4044 26.1784 -25.4097 36.6198 -8.5331 0.0000 -0.0000 -6.0907 -4.3085 -35.1063 2.4809 7.1250 -0.0000 -0.0000 34.4340 -61.7888 -15.0331
-0.7334 17.8219 1.8533 181.0420 6.8472 181.2600 0.0000 0.0000 0.0000 -13.7206 -21.1226 0.1170 0.9836 6.3127 17.6945 -0.5185 -24.2572 -13.3514 2.4438 -9.7350 -28.1226 0.0000 0.0000 0.0000 14.6198 14.5101 -8.1192 -1.1917 -6.9271 19.4996 1.2815 26.9505 -10.0327 -0.0786 1.8089 -4.9778 -2.9996 1.8747 13.9024 0.8780 2.3414 2.2205 2.1764 1.3207 -5.5954 -6.1446 -5.7982 -10.8346 9.3843 -8.0915 16.6049 3.3003 -3.2541 7.5278 0.0000 -0.0000 0.0000 -100.5980 12.7224 -2.4073 21.0216 -31.8535 -6.0613 -0.0000 0.0000 -1.1054 6.4571 -14.2543 -1.5963 -7.1250 0.0000 -0.0000 -14.2690 15.9184 10.1313 0.0000 -0.0000 0.0000 88.2278 5.5780 27.8619 -26.4424 37.6422 -9.1565 0.0000 -0.0000 -6.2639 -3.7055 -34.8608 2.1200 7.1250 -0.0000 -0.0000 34.7633 -61.4394 -14.9078
-0.8700 17.8110 1.8822 180.8870 9.6056 181.5540 0.0000 0.0000 0.0000 -14.0993 -18.8305 -0.3056 0.9278 6.1362 17.1802 -0.1679 -21.5177 -13.8317 2.8388 -10.4294 -30.3788 0.0000 0.0000 0.0000 14.0425 15.5799 -8.8496 -1.1975 -6.9433 19.5474 1.3490 27.1064 -9.6581 -0.1535 2.5249 -6.9586 -3.6332 1.6439 13.9326 0.8541 1.9297 2.2105 2.5873 1.1275 -5.6152 -6.2846 -5.9456 -10.8923 9.7531 -8.3479 16.6766 3.4159 -3.3508 7.6064 -0.0000 -0.0000 0.0000 -100.8260 12.5757 -2.9214 20.0575 -30.7116 -5.5607 -0.0000 0.0000 -0.0659 5.6622 -14.0882 -1.3825 -7.1250 0.0000 -0.0000 -14.8100 16.1183 10.4761 -0.0000 -0.0000 0.0000 88.1611 5.5672 29.0807 -27.5470 38.6959 -9.8392 0.0000 -0.0000 -6.1166 -3.8649 -33.8320 2.1541 7.1250 -0.0000 -0.0000 33.5136 -60.6360 -13.6566
-0.9997 17.8108 1.9124 180.6030 12.2073 181.8970 0.0000 0.0000 0.0000 -14.6683 -17.2013 -0.8235 0.8962 6.0336 16.8819 0.0465 -19.2365 -13.9323 3.2059 -11.0212 -32.3513 0.0000 0.0000 0.0000 13.3656 16.7332 -9.4541 -1.1770 -6.8857 19.3771 1.1671 26.3921 -10.3216 -0.3289 3.6860 -10.1949 -4.4351 1.3730 13.8835 0.7748 1.4353 2.1609 3.0522 0.8957 -5.6198 -6.5069 -6.1493 -11.0477 10.3113 -8.7025 16.9286 3.5970 -3.4686 7.7854 -0.0000 0.0000 0.0000 -100.7282 12.2300 -3.2662 18.8216 -29.1964 -4.9435 -0.0000 -0.0000 1.5702 4.7464 -13.7858 -1.1335 -7.1250 0.0000 -0.0000 -15.4411 16.4517 10.8406 -0.0000 0.0000 0.0000 88.2398 5.4532 29.7891 -28.5328 39.6021 -10.4616 0.0000 -0.0000 -5.4998 -3.9199 -32.4424 2.1052 7.1250 -0.0000 -0.0000 32.0878 -59.4926 -12.1149
-1.1253 17.8274 1.9335 180.2020 14.6563 182.1530 0.0000 0.0000 0.0000 -15.3771 -15.8233 -1.3475 0.8832 5.9909 16.7580 0.1968 -17.5787 -14.1408 3.5338 -11.5127 -34.0292 0.0000 0.0000 0.0000 12.6143 17.6099 -9.7667 -1.1201 -6.7231 18.8974 0.7400 24.6855 -11.9946 -0.5473 4.7397 -13.1675 -5.2519 1.0784 13.8136 0.6094 0.9055 2.1061 3.4405 0.6467 -5.6009 -6.4917 -6.3921 -11.2313 10.6116 -9.1163 17.2980 3.6460 -3.6160 7.9938 0.0000 -0.0000 0.0000 -100.1936 11.9894 -3.1510 17.6229 -27.6716 -4.3727 -0.0000 -0.0000 3.4497 3.1810 -13.3962 -0.7377 -7.1250 0.0000 -0.0000 -16.5147 16.8867 11.4967 0.0000 -0.0000 0.0000 88.4250 5.1807 30.2204 -29.3426 40.3232 -10.9818 0.0000 -0.0000 -5.6331 -3.2617 -31.8429 1.7222 7.1250 -0.0000 -0.0000 32.1761 -58.8402 -11.6404
-1.2527 17.8532 1.9445 179.9260 17.1372 182.4140 0.0000 0.0000 0.0000 -15.8443 -14.2280 -1.8655 0.8482 5.8742 16.4198 0.2752 -16.4756 -14.1782 3.7175 -11.7748 -34.9397 0.0000 0.0000 0.0000 12.0093 17.9640 -10.0889 -1.0636 -6.5568 18.4089 0.2034 21.9128 -13.8558 -0.3922 4.0213 -11.1365 -5.7747 0.7988 13.7219 0.4232 0.4372 2.0120 3.6270 0.4227 -5.6051 -6.3130 -6.6074 -11.2793 10.7530 -9.4939 17.5737 3.6203 -3.7565 8.1289 -0.0000 0.0000 0.0000 -99.4000 11.8372 -2.8672 16.5537 -26.2657 -3.8878 -0.0000 -0.0000 5.9614 0.9114 -13.1784 -0.2078 -7.1250 0.0000 -0.0000 -18.0422 17.1623 12.5570 -0.0000 0.0000 0.0000 88.6536 4.7009 30.4761 -29.9033 40.8103 -11.3463 0.0000 -0.0000 -6.8841 -3.6813 -31.8011 1.9419 7.1250 -0.0000 -0.0000 31.7266 -58.8989 -11.5016
-1.3851 17.8760 1.9511 180.1420 19.7121 182.6830 0.0000 0.0000 0.0000 -15.7287 -12.3912 -2.1759 0.7869 5.6630 15.8097 0.3010 -15.7078 -13.9827 3.7623 -11.8372 -35.1585 0.0000 0.0000 0.0000 11.9596 17.4294 -10.5422 -1.0188 -6.4216 18.0126 -0.2477 18.5408 -15.1559 -0.2318 3.0987 -8.5536 -5.7067 0.5038 13.7312 0.3629 0.0400 1.9475 3.5979 0.2239 -5.6371 -6.2933 -6.7349 -11.1536 11.1236 -9.7519 17.5815 3.7141 -3.8450 8.1529 -0.0000 0.0000 0.0000 -98.5173 11.4200 -2.7920 15.4678 -24.7937 -3.4197 -0.0000 -0.0000 9.3062 -1.8342 -13.0172 0.4133 -7.1250 0.0000 -0.0000 -19.8658 17.3682 13.8950 -0.0000 0.0000 0.0000 88.7828 4.1499 30.4814 -30.3129 41.1601 -11.6150 0.0000 -0.0000 -7.7428 -4.4039 -31.8615 2.3280 7.1250 -0.0000 -0.0000 31.0701 -59.1123 -11.3949
